<?xml version="1.0" standalone="no"?>
<!DOCTYPE svg PUBLIC "-//W3C//DTD SVG 20010904//EN"
 "http://www.w3.org/TR/2001/REC-SVG-20010904/DTD/svg10.dtd">
<svg version="1.0" xmlns="http://www.w3.org/2000/svg"
 width="800.000000pt" height="388.000000pt" viewBox="0 0 800.000000 388.000000"
 preserveAspectRatio="xMidYMid meet">

<g transform="translate(0.000000,388.000000) scale(0.100000,-0.100000)"
fill="#000000" stroke="none">
<path d="M1615 3566 c-43 -73 -147 -179 -235 -237 -30 -20 -127 -84 -215 -141
-88 -58 -195 -137 -237 -174 -248 -220 -360 -495 -329 -811 10 -101 50 -285
69 -320 5 -9 20 15 42 69 18 46 61 130 96 188 98 166 166 249 444 545 67 72
141 156 163 187 22 32 43 56 45 53 6 -5 -78 -160 -126 -234 -20 -31 -89 -126
-153 -211 -265 -354 -379 -565 -497 -915 -69 -204 -85 -297 -80 -460 5 -155
32 -246 105 -359 234 -362 744 -483 1225 -290 383 153 664 463 795 879 24 76
28 107 28 200 0 124 -8 146 -72 208 -52 52 -108 71 -183 64 -109 -10 -177 -66
-294 -243 -39 -60 -83 -117 -99 -128 -27 -20 -28 -20 -63 -1 -19 10 -47 37
-62 59 -39 58 -122 100 -184 92 -104 -11 -162 -64 -310 -284 -148 -221 -253
-306 -391 -318 -167 -15 -307 109 -307 270 0 74 37 209 99 366 l46 114 84 18
c275 60 507 196 649 380 86 112 161 285 193 443 21 105 19 407 -4 515 -28 136
-83 296 -145 424 l-58 119 -39 -67z m950 -1942 c54 -58 19 -228 -90 -449 -162
-329 -446 -548 -804 -621 -126 -25 -347 -16 -452 19 -125 42 -233 109 -291
180 -44 54 -88 120 -83 125 2 2 35 -8 75 -22 139 -50 295 -28 426 61 87 60
169 151 269 302 162 242 180 252 285 145 81 -82 104 -94 178 -94 53 0 63 4
117 44 45 32 74 66 115 131 82 130 119 176 154 191 47 20 74 17 101 -12z"/>
<path d="M2386 1426 c-26 -25 -26 -27 -25 -173 l1 -148 49 100 c66 137 87 202
68 220 -29 28 -66 29 -93 1z"/>
<path d="M1765 1315 l-25 -24 0 -321 c0 -361 -8 -334 85 -299 l55 20 0 304 0
304 -26 20 c-35 27 -59 26 -89 -4z"/>
<path d="M2021 1154 c-20 -25 -21 -40 -21 -211 l0 -184 23 12 c12 6 43 28 70
47 l47 36 0 143 c0 130 -2 145 -20 163 -29 29 -74 26 -99 -6z"/>
<path d="M1506 951 c-18 -19 -20 -69 -16 -308 0 -33 0 -33 49 -33 85 0 81 -7
81 166 0 141 -2 156 -20 174 -25 25 -72 26 -94 1z"/>
<path d="M1256 799 c-24 -19 -26 -27 -26 -89 l0 -69 63 -14 c34 -8 66 -11 71
-7 4 5 7 43 4 85 -3 66 -7 80 -27 96 -30 24 -52 24 -85 -2z"/>
<path d="M484 2688 c-173 -178 -281 -378 -350 -643 -31 -122 -43 -359 -25
-497 42 -312 180 -591 399 -806 118 -116 133 -121 83 -30 -48 88 -65 134 -86
236 -9 42 -22 84 -30 92 -25 28 -123 235 -149 313 -73 224 -75 504 -5 732 23
79 104 250 143 308 18 26 30 61 36 110 14 95 37 182 61 230 11 21 19 41 16 43
-2 2 -44 -37 -93 -88z"/>
<path d="M3087 2734 c-4 -4 -7 -423 -7 -931 0 -765 2 -923 13 -923 18 0 24
292 22 1179 -1 646 -3 700 -28 675z"/>
<path d="M4585 2205 c-56 -56 -16 -145 65 -145 54 0 90 34 90 85 0 51 -36 85
-90 85 -30 0 -47 -6 -65 -25z"/>
<path d="M7775 2205 c-56 -56 -16 -145 65 -145 54 0 90 34 90 85 0 51 -36 85
-90 85 -30 0 -47 -6 -65 -25z"/>
<path d="M4297 2203 c-3 -5 -5 -183 -4 -395 l1 -386 64 -4 c35 -2 68 0 73 3 5
3 8 169 7 395 l-3 389 -67 3 c-36 2 -69 -1 -71 -5z"/>
<path d="M3743 2177 c-13 -16 -306 -747 -301 -752 5 -5 47 -7 105 -6 l52 1 28
80 28 80 170 -2 169 -3 29 -77 30 -78 58 -1 c33 -1 66 -1 74 -1 8 0 19 0 25 1
5 0 1 22 -10 49 -10 26 -53 130 -95 232 -42 102 -101 248 -131 325 -31 77 -63
145 -70 151 -21 16 -149 17 -161 1z m140 -317 l55 -145 -110 -3 c-61 -1 -112
-1 -115 1 -2 3 22 70 53 151 31 80 58 145 60 144 1 -2 27 -68 57 -148z"/>
<path d="M6953 2133 c-9 -3 -13 -29 -13 -79 l0 -74 -40 0 -40 0 0 -60 0 -60
40 0 40 0 0 -142 c0 -79 5 -160 10 -180 13 -46 52 -93 94 -115 36 -19 137 -21
180 -4 26 10 28 14 22 49 -9 46 -38 72 -81 72 -24 0 -39 7 -54 26 -19 24 -21
40 -21 160 l0 134 70 0 70 0 0 60 0 59 -67 3 -68 3 -3 78 -3 77 -62 -1 c-34 0
-68 -3 -74 -6z"/>
<path d="M2483 2072 c-46 -7 -76 -76 -57 -127 8 -19 55 -45 84 -45 29 0 80 53
80 82 -1 55 -53 100 -107 90z"/>
<path d="M5022 1982 c-114 -41 -183 -137 -190 -262 -9 -157 77 -277 224 -311
68 -16 153 2 198 42 42 36 46 36 46 -1 0 -32 -2 -32 85 -34 l50 -1 3 283 2
282 -70 0 -70 0 0 -30 c0 -16 -4 -30 -10 -30 -5 0 -10 4 -10 8 0 5 -23 21 -50
36 -67 36 -139 42 -208 18z m199 -145 c66 -44 89 -144 50 -217 -57 -108 -215
-108 -272 0 -39 72 -16 172 51 218 46 31 124 31 171 -1z"/>
<path d="M5803 1982 c-23 -9 -54 -27 -68 -39 -32 -29 -35 -29 -35 7 l0 30 -65
0 -65 0 0 -280 0 -280 75 0 75 0 0 170 c0 191 9 228 59 254 36 19 90 21 126 4
49 -22 55 -51 55 -248 l0 -180 75 0 75 0 0 191 c0 228 -8 267 -65 324 -63 63
-157 81 -242 47z"/>
<path d="M7610 1991 c-41 -13 -84 -38 -104 -60 -22 -24 -36 -14 -36 27 0 21
-4 22 -65 22 l-65 0 0 -280 0 -280 48 -1 c26 -1 58 -2 72 -3 l25 -1 5 170 c4
114 10 179 20 198 18 37 67 66 124 73 l47 7 -3 66 c-3 72 -12 79 -68 62z"/>
<path d="M4580 1700 l0 -280 70 0 70 0 0 280 0 280 -70 0 -70 0 0 -280z"/>
<path d="M6232 1788 c4 -209 13 -249 70 -311 95 -102 329 -93 411 15 49 64 57
105 57 304 l0 184 -75 0 -75 0 0 -175 c0 -196 -6 -222 -62 -251 -38 -20 -101
-14 -130 13 -41 36 -48 73 -48 248 l0 165 -76 0 -76 0 4 -192z"/>
<path d="M7772 1698 l3 -282 58 1 c31 1 62 1 67 2 6 1 10 102 10 281 l0 280
-70 0 -70 0 2 -282z"/>
<path d="M1785 1808 c-50 -27 -60 -80 -22 -116 23 -22 62 -28 83 -14 16 10 34
48 34 70 0 44 -58 81 -95 60z"/>
<path d="M2026 1689 c-36 -29 -36 -80 1 -109 70 -55 151 42 88 105 -30 30 -54
31 -89 4z"/>
<path d="M1333 1450 c-40 -16 -57 -78 -30 -113 6 -10 28 -20 48 -23 29 -5 40
-2 58 17 52 56 -6 147 -76 119z"/>
<path d="M1035 1235 c-14 -13 -25 -30 -26 -37 -7 -83 48 -132 117 -103 59 24
71 90 25 136 -38 37 -82 39 -116 4z"/>
</g>
</svg>
